<?xml version="1.0" encoding="UTF-8" standalone="no"?>
<!-- Created with Inkscape (http://www.inkscape.org/) -->

<svg
   width="48"
   height="48"
   viewBox="0 0 12.7 12.7"
   version="1.1"
   id="svg363"
   inkscape:version="1.2.1 (9c6d41e410, 2022-07-14)"
   sodipodi:docname="track.svg"
   xmlns:inkscape="http://www.inkscape.org/namespaces/inkscape"
   xmlns:sodipodi="http://sodipodi.sourceforge.net/DTD/sodipodi-0.dtd"
   xmlns="http://www.w3.org/2000/svg"
   xmlns:svg="http://www.w3.org/2000/svg">
  <sodipodi:namedview
     id="namedview365"
     pagecolor="#ffffff"
     bordercolor="#000000"
     borderopacity="0.25"
     inkscape:showpageshadow="2"
     inkscape:pageopacity="0.0"
     inkscape:pagecheckerboard="0"
     inkscape:deskcolor="#d1d1d1"
     inkscape:document-units="mm"
     showgrid="false"
     inkscape:zoom="12.500449"
     inkscape:cx="23.479157"
     inkscape:cy="32.398836"
     inkscape:window-width="1920"
     inkscape:window-height="1057"
     inkscape:window-x="-8"
     inkscape:window-y="-8"
     inkscape:window-maximized="1"
     inkscape:current-layer="layer1" />
  <defs
     id="defs360" />
  <g
     inkscape:label="Layer 1"
     inkscape:groupmode="layer"
     id="layer1">
    <path
       fill="#000000"
       fill-opacity="1"
       stroke-width="0.0659932"
       stroke-linejoin="round"
       d="M 0.62176774,11.161294 1.0342247,9.9857928 H 0.09933345 L 0.62176774,8.5489578 H 1.5383789 L 1.904971,7.5041873 1.0136019,7.5041541 1.4054358,6.3286535 H 2.3174279 L 2.7298846,5.1531513 H 2.0585036 L 2.5809379,4.2388829 H 3.0506772 L 3.3714696,3.3246146 H 2.7115715 L 3.2340057,2.6715469 h 0.3665908 l 0.5041211,-1.436736 h 1.2190587 l -0.3780749,1.436736 h 2.845952 L 7.4135785,1.2348109 h 1.2190588 l 0.5041211,1.436736 H 9.5033493 L 10.025783,3.3246146 H 9.365885 l 0.3207925,0.9142683 h 0.4697395 l 0.522434,0.9142684 h -0.671348 l 0.412424,1.1755022 h 0.781359 l 0.391832,1.1756336 h -0.7607 l 0.366557,1.0446707 h 0.916578 l 0.522468,1.436835 H 11.70313 l 0.412456,1.1755012 H 10.025783 L 9.7164401,9.9857928 H 3.0209145 L 2.7115715,11.161294 Z M 4.5332445,4.2388829 H 8.2041103 L 7.9634993,3.3246146 H 4.7738223 Z M 3.9832905,6.3286535 H 8.754031 L 8.444688,5.1531846 H 4.2926334 Z M 3.3990211,8.5489578 H 9.3383336 L 9.0634058,7.5042537 3.673949,7.5041873 Z"
       id="path10" />
  </g>
</svg>
